<svg xmlns="http://www.w3.org/2000/svg" style="display: none;"><symbol id="linkedin" viewBox="0 0 382 382"><title>linkedin</title><path style="fill:#0077B7;" d="M347.445,0H34.555C15.471,0,0,15.471,0,34.555v312.889C0,366.529,15.471,382,34.555,382h312.889 C366.529,382,382,366.529,382,347.444V34.555C382,15.471,366.529,0,347.445,0z M118.207,329.844c0,5.554-4.502,10.056-10.056,10.056 H65.345c-5.554,0-10.056-4.502-10.056-10.056V150.403c0-5.554,4.502-10.056,10.056-10.056h42.806 c5.554,0,10.056,4.502,10.056,10.056V329.844z M86.748,123.432c-22.459,0-40.666-18.207-40.666-40.666S64.289,42.1,86.748,42.1 s40.666,18.207,40.666,40.666S109.208,123.432,86.748,123.432z M341.91,330.654c0,5.106-4.14,9.246-9.246,9.246H286.73 c-5.106,0-9.246-4.14-9.246-9.246v-84.168c0-12.556,3.683-55.021-32.813-55.021c-28.309,0-34.051,29.066-35.204,42.11v97.079 c0,5.106-4.139,9.246-9.246,9.246h-44.426c-5.106,0-9.246-4.14-9.246-9.246V149.593c0-5.106,4.14-9.246,9.246-9.246h44.426 c5.106,0,9.246,4.14,9.246,9.246v15.655c10.497-15.753,26.097-27.912,59.312-27.912c73.552,0,73.131,68.716,73.131,106.472 L341.91,330.654L341.91,330.654z"/></symbol><symbol id="youtube" viewBox="0 0 90 90"><title>youtube</title><path id="YouTube" d="M70.939,65.832H66l0.023-2.869c0-1.275,1.047-2.318,2.326-2.318h0.315c1.282,0,2.332,1.043,2.332,2.318 L70.939,65.832z M52.413,59.684c-1.253,0-2.278,0.842-2.278,1.873V75.51c0,1.029,1.025,1.869,2.278,1.869 c1.258,0,2.284-0.84,2.284-1.869V61.557C54.697,60.525,53.671,59.684,52.413,59.684z M82.5,51.879v26.544 C82.5,84.79,76.979,90,70.23,90H19.771C13.02,90,7.5,84.79,7.5,78.423V51.879c0-6.367,5.52-11.578,12.271-11.578H70.23 C76.979,40.301,82.5,45.512,82.5,51.879z M23.137,81.305l-0.004-27.961l6.255,0.002v-4.143l-16.674-0.025v4.073l5.205,0.015v28.039 H23.137z M41.887,57.509h-5.215v14.931c0,2.16,0.131,3.24-0.008,3.621c-0.424,1.158-2.33,2.388-3.073,0.125 c-0.126-0.396-0.015-1.591-0.017-3.643l-0.021-15.034h-5.186l0.016,14.798c0.004,2.268-0.051,3.959,0.018,4.729 c0.127,1.357,0.082,2.939,1.341,3.843c2.346,1.69,6.843-0.252,7.968-2.668l-0.01,3.083l4.188,0.005L41.887,57.509L41.887,57.509z M58.57,74.607L58.559,62.18c-0.004-4.736-3.547-7.572-8.356-3.74l0.021-9.239l-5.209,0.008l-0.025,31.89l4.284-0.062l0.39-1.986 C55.137,84.072,58.578,80.631,58.57,74.607z M74.891,72.96l-3.91,0.021c-0.002,0.155-0.008,0.334-0.01,0.529v2.182 c0,1.168-0.965,2.119-2.137,2.119h-0.766c-1.174,0-2.139-0.951-2.139-2.119V75.45v-2.4v-3.097h8.954v-3.37 c0-2.463-0.063-4.925-0.267-6.333c-0.641-4.454-6.893-5.161-10.051-2.881c-0.991,0.712-1.748,1.665-2.188,2.945 c-0.444,1.281-0.665,3.031-0.665,5.254v7.41C61.714,85.296,76.676,83.555,74.891,72.96z M54.833,32.732 c0.269,0.654,0.687,1.184,1.254,1.584c0.56,0.394,1.276,0.592,2.134,0.592c0.752,0,1.418-0.203,1.998-0.622 c0.578-0.417,1.065-1.04,1.463-1.871l-0.099,2.046h5.813V9.74H62.82v19.24c0,1.042-0.858,1.895-1.907,1.895 c-1.043,0-1.904-0.853-1.904-1.895V9.74h-4.776v16.674c0,2.124,0.039,3.54,0.102,4.258C54.4,31.385,54.564,32.069,54.833,32.732z M37.217,18.77c0-2.373,0.198-4.226,0.591-5.562c0.396-1.331,1.107-2.401,2.137-3.208c1.027-0.811,2.342-1.217,3.941-1.217 c1.345,0,2.497,0.264,3.459,0.781c0.967,0.52,1.713,1.195,2.23,2.028c0.527,0.836,0.885,1.695,1.076,2.574 c0.195,0.891,0.291,2.235,0.291,4.048v6.252c0,2.293-0.092,3.98-0.271,5.051c-0.177,1.074-0.557,2.07-1.146,3.004 c-0.58,0.924-1.329,1.615-2.237,2.056c-0.918,0.445-1.968,0.663-3.154,0.663c-1.325,0-2.441-0.183-3.361-0.565 c-0.923-0.38-1.636-0.953-2.144-1.714c-0.513-0.762-0.874-1.69-1.092-2.772c-0.219-1.081-0.323-2.707-0.323-4.874L37.217,18.77 L37.217,18.77z M41.77,28.59c0,1.4,1.042,2.543,2.311,2.543c1.27,0,2.308-1.143,2.308-2.543V15.43c0-1.398-1.038-2.541-2.308-2.541 c-1.269,0-2.311,1.143-2.311,2.541V28.59z M25.682,35.235h5.484l0.006-18.96l6.48-16.242h-5.998l-3.445,12.064L24.715,0h-5.936 l6.894,16.284L25.682,35.235z"/></symbol><symbol id="google-plus" viewBox="0 0 458.246 458.246"><title>google-plus</title><path style="fill:#F34A38;" d="M160.777,259.368h71.594c-12.567,35.53-46.603,61.004-86.45,60.71 c-48.349-0.357-88.327-39.035-90.204-87.349c-2.012-51.789,39.537-94.563,90.887-94.563c23.479,0,44.905,8.946,61.058,23.605 c3.826,3.473,9.65,3.495,13.413-0.047l26.296-24.749c4.112-3.871,4.127-10.408,0.027-14.292 c-25.617-24.269-59.981-39.396-97.876-40.136C68.696,80.969,0.567,147.238,0.004,228.078 c-0.568,81.447,65.285,147.649,146.6,147.649c78.199,0,142.081-61.229,146.36-138.358c0.114-0.967,0.189-33.648,0.189-33.648 H160.777c-5.426,0-9.824,4.398-9.824,9.824v35.999C150.953,254.97,155.352,259.368,160.777,259.368z"/><path style="fill:#F34A38;" d="M414.464,206.99v-35.173c0-4.755-3.854-8.609-8.609-8.609h-29.604c-4.755,0-8.609,3.854-8.609,8.609 v35.173h-35.173c-4.755,0-8.609,3.854-8.609,8.609v29.604c0,4.755,3.854,8.609,8.609,8.609h35.173v35.173 c0,4.755,3.854,8.609,8.609,8.609h29.604c4.755,0,8.609-3.854,8.609-8.609v-35.173h35.173c4.755,0,8.609-3.854,8.609-8.609v-29.604 c0-4.755-3.854-8.609-8.609-8.609L414.464,206.99L414.464,206.99z"/></symbol><symbol id="twitter" viewBox="0 0 512 512"><title>twitter</title><path style="fill:#03A9F4;" d="M512,97.248c-19.04,8.352-39.328,13.888-60.48,16.576c21.76-12.992,38.368-33.408,46.176-58.016 c-20.288,12.096-42.688,20.64-66.56,25.408C411.872,60.704,384.416,48,354.464,48c-58.112,0-104.896,47.168-104.896,104.992 c0,8.32,0.704,16.32,2.432,23.936c-87.264-4.256-164.48-46.08-216.352-109.792c-9.056,15.712-14.368,33.696-14.368,53.056 c0,36.352,18.72,68.576,46.624,87.232c-16.864-0.32-33.408-5.216-47.424-12.928c0,0.32,0,0.736,0,1.152 c0,51.008,36.384,93.376,84.096,103.136c-8.544,2.336-17.856,3.456-27.52,3.456c-6.72,0-13.504-0.384-19.872-1.792 c13.6,41.568,52.192,72.128,98.08,73.12c-35.712,27.936-81.056,44.768-130.144,44.768c-8.608,0-16.864-0.384-25.12-1.44 C46.496,446.88,101.6,464,161.024,464c193.152,0,298.752-160,298.752-298.688c0-4.64-0.16-9.12-0.384-13.568 C480.224,136.96,497.728,118.496,512,97.248z"/></symbol><symbol id="facebook" viewBox="0 0 408.788 408.788"><title>facebook</title><path style="fill:#475993;" d="M353.701,0H55.087C24.665,0,0.002,24.662,0.002,55.085v298.616c0,30.423,24.662,55.085,55.085,55.085 h147.275l0.251-146.078h-37.951c-4.932,0-8.935-3.988-8.954-8.92l-0.182-47.087c-0.019-4.959,3.996-8.989,8.955-8.989h37.882 v-45.498c0-52.8,32.247-81.55,79.348-81.55h38.65c4.945,0,8.955,4.009,8.955,8.955v39.704c0,4.944-4.007,8.952-8.95,8.955 l-23.719,0.011c-25.615,0-30.575,12.172-30.575,30.035v39.389h56.285c5.363,0,9.524,4.683,8.892,10.009l-5.581,47.087 c-0.534,4.506-4.355,7.901-8.892,7.901h-50.453l-0.251,146.078h87.631c30.422,0,55.084-24.662,55.084-55.084V55.085 C408.786,24.662,384.124,0,353.701,0z"/></symbol><symbol id="instagram" viewBox="0 0 551.034 551.034"><title>instagram</title><linearGradient id="SVGID_1_" gradientUnits="userSpaceOnUse" x1="275.517" y1="4.57" x2="275.517" y2="549.72" gradientTransform="matrix(1 0 0 -1 0 554)"> <stop offset="0" style="stop-color:#E09B3D"/> <stop offset="0.3" style="stop-color:#C74C4D"/> <stop offset="0.6" style="stop-color:#C21975"/> <stop offset="1" style="stop-color:#7024C4"/> </linearGradient><path style="fill:url(#SVGID_1_);" d="M386.878,0H164.156C73.64,0,0,73.64,0,164.156v222.722 c0,90.516,73.64,164.156,164.156,164.156h222.722c90.516,0,164.156-73.64,164.156-164.156V164.156 C551.033,73.64,477.393,0,386.878,0z M495.6,386.878c0,60.045-48.677,108.722-108.722,108.722H164.156 c-60.045,0-108.722-48.677-108.722-108.722V164.156c0-60.046,48.677-108.722,108.722-108.722h222.722 c60.045,0,108.722,48.676,108.722,108.722L495.6,386.878L495.6,386.878z"/><linearGradient id="SVGID_2_" gradientUnits="userSpaceOnUse" x1="275.517" y1="4.57" x2="275.517" y2="549.72" gradientTransform="matrix(1 0 0 -1 0 554)"> <stop offset="0" style="stop-color:#E09B3D"/> <stop offset="0.3" style="stop-color:#C74C4D"/> <stop offset="0.6" style="stop-color:#C21975"/> <stop offset="1" style="stop-color:#7024C4"/> </linearGradient><path style="fill:url(#SVGID_2_);" d="M275.517,133C196.933,133,133,196.933,133,275.516s63.933,142.517,142.517,142.517 S418.034,354.1,418.034,275.516S354.101,133,275.517,133z M275.517,362.6c-48.095,0-87.083-38.988-87.083-87.083 s38.989-87.083,87.083-87.083c48.095,0,87.083,38.988,87.083,87.083C362.6,323.611,323.611,362.6,275.517,362.6z"/><linearGradient id="SVGID_3_" gradientUnits="userSpaceOnUse" x1="418.31" y1="4.57" x2="418.31" y2="549.72" gradientTransform="matrix(1 0 0 -1 0 554)"> <stop offset="0" style="stop-color:#E09B3D"/> <stop offset="0.3" style="stop-color:#C74C4D"/> <stop offset="0.6" style="stop-color:#C21975"/> <stop offset="1" style="stop-color:#7024C4"/> </linearGradient><circle style="fill:url(#SVGID_3_);" cx="418.31" cy="134.07" r="34.15"/></symbol></svg>